<svg width="40" height="40" viewBox="0 0 40 40" fill="none" xmlns="http://www.w3.org/2000/svg">
<path d="M20 2.5C10.3477 2.5 2.5 10.3477 2.5 20C2.5 29.6523 10.3477 37.5 20 37.5C29.6523 37.5 37.5 29.6523 37.5 20C37.5 10.3477 29.6523 2.5 20 2.5Z" fill="#FF5A5F"/>
<path d="M20 24.6084C18.8527 23.1652 18.1778 21.9001 17.9528 20.8178C17.7279 19.9383 17.8178 19.2393 18.2003 18.7206C18.6052 18.1118 19.2126 17.8186 20 17.8186C20.7874 17.8186 21.3948 18.1118 21.7997 18.7206C22.1822 19.2393 22.2722 19.9383 22.0472 20.8178C21.7997 21.9227 21.1248 23.1855 20 24.6084ZM26.281 27.9458C24.3688 28.7801 22.4769 27.4497 20.8571 25.6457C23.5365 22.2835 24.0314 19.6677 22.8818 17.9742C22.2069 17.0046 21.2396 16.531 20 16.531C17.5029 16.531 16.1284 18.6507 16.6683 21.1109C16.9832 22.4413 17.8156 23.9544 19.1429 25.6457C18.1473 26.7515 16.8412 28.0059 15.2735 28.1487C13.0013 28.487 11.2219 26.2771 12.0317 23.9973L17.7931 12.0413C18.2848 11.1425 18.8917 10.3726 19.9978 10.3726C20.8076 10.3726 21.4375 10.8462 21.7075 11.2295L27.9638 23.9973C28.5767 25.54 27.7994 27.2886 26.281 27.9458ZM29.1831 23.5463L23.8267 12.3796C22.8143 10.305 22.0944 9.0625 20 9.0625C17.9303 9.0625 17.0507 10.5057 16.1509 12.3796L10.8169 23.5463C9.66961 26.7055 12.0317 29.4792 14.8911 29.4792C15.071 29.4792 15.2497 29.4566 15.431 29.4566C16.9157 29.2762 18.4478 28.3291 20 26.6356C21.5523 28.3269 23.0843 29.2762 24.5691 29.4566C24.7503 29.4566 24.929 29.4792 25.109 29.4792C27.9683 29.4814 30.3304 26.7055 29.1831 23.5463Z" fill="white"/>
</svg>
