<svg width="41" height="40" viewBox="0 0 41 40" fill="none" xmlns="http://www.w3.org/2000/svg">
<rect x="0.5" width="40" height="40" rx="20" fill="#1B4BF1"/>
<path opacity="0.5" d="M28.9264 15.7265C29.1961 13.9679 28.9264 12.7956 27.9824 11.7134C26.9485 10.496 25.0605 10 22.6331 10H15.6656C15.1711 10 14.7665 10.3607 14.6766 10.8567L11.7547 29.3437C11.7098 29.7044 11.9795 30.02 12.3391 30.02H16.6545L16.3399 31.9138C16.2949 32.2295 16.5197 32.5 16.8793 32.5H20.5204C20.9699 32.5 21.3295 32.1844 21.3745 31.7786L22.1387 26.999C22.1836 26.5932 22.5882 26.2776 22.9928 26.2776H23.5322C27.0384 26.2776 29.8255 24.8347 30.6346 20.6864C30.9493 18.9729 30.8144 17.485 29.9154 16.493C29.6457 16.1774 29.331 15.9519 28.9264 15.7265Z" fill="white"/>
<path d="M28.9264 15.7265C29.1961 13.9679 28.9264 12.7956 27.9824 11.7134C26.9485 10.496 25.0605 10 22.6331 10H15.6656C15.1711 10 14.7665 10.3607 14.6766 10.8567L11.7547 29.3437C11.7098 29.7044 11.9795 30.02 12.3391 30.02H16.6545L17.6884 23.3467C17.7783 22.8507 18.1829 22.49 18.6774 22.49H20.7452C24.7908 22.49 27.9375 20.8667 28.8365 16.0872C28.8815 15.997 28.8815 15.8617 28.9264 15.7265Z" fill="white"/>
<path fillRule="evenodd" clipRule="evenodd" d="M30.1208 16.096C30.1191 16.105 30.1161 16.121 30.1114 16.1467C30.1057 16.1785 30.0932 16.2474 30.0743 16.3214C30.0669 16.3504 30.0572 16.3854 30.0445 16.425C29.5373 19.0088 28.3926 20.8874 26.6973 22.0981C25.0064 23.3058 22.9194 23.74 20.7452 23.74H18.8924L17.7258 31.27H12.3391C11.1964 31.27 10.3804 30.2642 10.5143 29.1891L10.5169 29.1688L13.4442 10.6476L13.4467 10.6338C13.6356 9.59143 14.5189 8.75 15.6656 8.75H22.6331C25.136 8.75 27.5193 9.24302 28.9297 10.8979C29.516 11.5715 29.9235 12.3133 30.1267 13.1814C30.3265 14.0353 30.3118 14.9394 30.162 15.916L30.146 16.0204L30.1208 16.096ZM27.9824 11.7134C26.9485 10.496 25.0605 10 22.6331 10H15.6656C15.1711 10 14.7665 10.3607 14.6766 10.8567L11.7547 29.3437C11.7098 29.7044 11.9795 30.02 12.3391 30.02H16.6545L17.6884 23.3467C17.7783 22.8507 18.1829 22.49 18.6774 22.49H20.7452C24.7908 22.49 27.9375 20.8667 28.8365 16.0872C28.8609 16.0384 28.872 15.9763 28.8843 15.9082C28.8946 15.8505 28.9058 15.7885 28.9264 15.7265C29.1961 13.9679 28.9264 12.7956 27.9824 11.7134Z" fill="#1B4BF1"/>
<path d="M18.9021 15.7715C18.9471 15.4559 19.3516 15.0501 19.7562 15.0501H25.2404C25.8697 15.0501 26.499 15.0952 27.0384 15.1854C27.5329 15.2755 28.432 15.501 28.8815 15.7715C29.1512 14.013 28.8815 12.8407 27.9375 11.7585C26.9485 10.496 25.0606 10 22.6331 10H15.6656C15.1711 10 14.7665 10.3607 14.6766 10.8567L11.7547 29.3437C11.7098 29.7044 11.9795 30.02 12.3391 30.02H16.6545L18.9021 15.7715Z" fill="white"/>
</svg>
