<svg width="40" height="40" viewBox="0 0 40 40" fill="none" xmlns="http://www.w3.org/2000/svg">
<circle cx="20" cy="20" r="20" fill="#E31937"/>
<path d="M20.0005 31.4285L22.9444 14.8726C25.7502 14.8726 26.6353 15.1803 26.7632 16.4362C26.7632 16.4362 28.6455 15.7343 29.5948 14.3089C25.8901 12.5922 22.1678 12.5148 22.1678 12.5148L19.9957 15.1604L20.0006 15.16L17.8285 12.5144C17.8285 12.5144 14.106 12.5919 10.4018 14.3086C11.3504 15.734 13.2334 16.4358 13.2334 16.4358C13.362 15.1799 14.2459 14.8722 17.033 14.8702L20.0005 31.4285Z" fill="white"/>
<path d="M19.9994 11.7508C22.9941 11.7279 26.4218 12.214 29.9309 13.7434C30.3999 12.8993 30.5204 12.5262 30.5204 12.5262C26.6845 11.0086 23.0922 10.4892 19.9989 10.4762C16.9057 10.4892 13.3136 11.0087 9.47827 12.5262C9.47827 12.5262 9.64937 12.9857 10.0674 13.7434C13.5758 12.214 17.0042 11.7279 19.999 11.7508H19.9994Z" fill="white"/>
</svg>
